<svg width="101" height="27" viewBox="0 0 101 27" fill="none" xmlns="http://www.w3.org/2000/svg">
<path d="M26.9947 6.65895C26.9632 6.36854 26.7827 6.11151 26.513 5.98563L13.8567 0.0793852C13.6306 -0.0261362 13.3693 -0.0261362 13.1431 0.0793852L0.486896 5.98563C0.217213 6.11151 0.0367559 6.36849 0.00516797 6.65895C0.00448242 6.66501 0 6.7458 0 6.75023V21.094C0 21.439 0.210041 21.7493 0.530402 21.8773L13.1867 26.9398C13.2872 26.9801 13.3936 27.0002 13.5 27.0002C13.6064 27.0002 13.7128 26.9801 13.8133 26.9398L26.4696 21.8773C26.79 21.7493 27 21.439 27 21.094V6.75023C27 6.7458 26.9954 6.66496 26.9947 6.65895ZM13.5 1.77506L24.0334 6.69064L19.9774 8.31307L9.24576 3.7604L13.5 1.77506ZM7.18822 4.72059L17.7533 9.20264L13.5 10.904L2.96662 6.69064L7.18822 4.72059ZM1.6875 7.99645L12.6562 12.3839V24.9102L1.6875 20.5227V7.99645ZM14.3438 24.9103V12.3839L25.3125 7.99645V20.5227L14.3438 24.9103Z" fill="#0A143A"/>
<path d="M43.3711 17.5234C43.3711 16.8594 43.1367 16.3516 42.668 16C42.1992 15.6406 41.3555 15.2656 40.1367 14.875C38.918 14.4766 37.9531 14.0859 37.2422 13.7031C35.3047 12.6562 34.3359 11.2461 34.3359 9.47265C34.3359 8.55078 34.5938 7.73046 35.1094 7.01171C35.6328 6.28515 36.3789 5.71874 37.3477 5.31249C38.3242 4.90624 39.418 4.70312 40.6289 4.70312C41.8477 4.70312 42.9336 4.92578 43.8867 5.37109C44.8398 5.80859 45.5781 6.42968 46.1016 7.23437C46.6328 8.03906 46.8984 8.95312 46.8984 9.97656H43.3828C43.3828 9.19531 43.1367 8.58984 42.6445 8.16015C42.1523 7.72265 41.4609 7.5039 40.5703 7.5039C39.7109 7.5039 39.043 7.68749 38.5664 8.05468C38.0898 8.41406 37.8516 8.89062 37.8516 9.48437C37.8516 10.0391 38.1289 10.5039 38.6836 10.8789C39.2461 11.2539 40.0703 11.6055 41.1562 11.9336C43.1562 12.5352 44.6133 13.2812 45.5273 14.1719C46.4414 15.0625 46.8984 16.1719 46.8984 17.5C46.8984 18.9766 46.3398 20.1367 45.2227 20.9805C44.1055 21.8164 42.6016 22.2344 40.7109 22.2344C39.3984 22.2344 38.2031 21.9961 37.125 21.5195C36.0469 21.0352 35.2227 20.375 34.6523 19.5391C34.0898 18.7031 33.8086 17.7344 33.8086 16.6328H37.3359C37.3359 18.5156 38.4609 19.457 40.7109 19.457C41.5469 19.457 42.1992 19.2891 42.668 18.9531C43.1367 18.6094 43.3711 18.1328 43.3711 17.5234Z" fill="#0A143A"/>
<path d="M56.4141 22C56.2578 21.6953 56.1445 21.3164 56.0742 20.8633C55.2539 21.7773 54.1875 22.2344 52.875 22.2344C51.6328 22.2344 50.6016 21.875 49.7812 21.1562C48.9688 20.4375 48.5625 19.5312 48.5625 18.4375C48.5625 17.0937 49.0586 16.0625 50.0508 15.3437C51.0508 14.625 52.4922 14.2617 54.375 14.2539H55.9336V13.5273C55.9336 12.9414 55.7812 12.4727 55.4766 12.1211C55.1797 11.7695 54.707 11.5937 54.0586 11.5937C53.4883 11.5937 53.0391 11.7305 52.7109 12.0039C52.3906 12.2773 52.2305 12.6523 52.2305 13.1289H48.8438C48.8438 12.3945 49.0703 11.7148 49.5234 11.0898C49.9766 10.4648 50.6172 9.97656 51.4453 9.62499C52.2734 9.26562 53.2031 9.08593 54.2344 9.08593C55.7969 9.08593 57.0352 9.48046 57.9492 10.2695C58.8711 11.0508 59.332 12.1523 59.332 13.5742V19.0703C59.3398 20.2734 59.5078 21.1836 59.8359 21.8008V22H56.4141ZM53.6133 19.6445C54.1133 19.6445 54.5742 19.5352 54.9961 19.3164C55.418 19.0898 55.7305 18.7891 55.9336 18.4141V16.2344H54.668C52.9727 16.2344 52.0703 16.8203 51.9609 17.9922L51.9492 18.1914C51.9492 18.6133 52.0977 18.9609 52.3945 19.2344C52.6914 19.5078 53.0977 19.6445 53.6133 19.6445Z" fill="#0A143A"/>
<path d="M65.0508 9.32031L65.1562 10.7852C66.0625 9.65234 67.2773 9.08593 68.8008 9.08593C70.1445 9.08593 71.1445 9.48046 71.8008 10.2695C72.457 11.0586 72.793 12.2383 72.8086 13.8086V22H69.4219V13.8906C69.4219 13.1719 69.2656 12.6523 68.9531 12.332C68.6406 12.0039 68.1211 11.8398 67.3945 11.8398C66.4414 11.8398 65.7266 12.2461 65.25 13.0586V22H61.8633V9.32031H65.0508Z" fill="#0A143A"/>
<path d="M74.8594 15.5664C74.8594 13.5898 75.3008 12.0156 76.1836 10.8437C77.0742 9.67187 78.2891 9.08593 79.8281 9.08593C81.0625 9.08593 82.082 9.54687 82.8867 10.4687V3.99999H86.2852V22H83.2266L83.0625 20.6523C82.2188 21.707 81.1328 22.2344 79.8047 22.2344C78.3125 22.2344 77.1133 21.6484 76.207 20.4766C75.3086 19.2969 74.8594 17.6602 74.8594 15.5664ZM78.2461 15.8125C78.2461 17 78.4531 17.9102 78.8672 18.543C79.2812 19.1758 79.8828 19.4922 80.6719 19.4922C81.7188 19.4922 82.457 19.0508 82.8867 18.168V13.1641C82.4648 12.2812 81.7344 11.8398 80.6953 11.8398C79.0625 11.8398 78.2461 13.1641 78.2461 15.8125Z" fill="#0A143A"/>
<path d="M88.3828 15.543C88.3828 14.2852 88.625 13.1641 89.1094 12.1797C89.5938 11.1953 90.2891 10.4336 91.1953 9.89453C92.1094 9.35546 93.168 9.08593 94.3711 9.08593C96.082 9.08593 97.4766 9.60937 98.5547 10.6562C99.6406 11.7031 100.246 13.125 100.371 14.9219L100.395 15.7891C100.395 17.7344 99.8516 19.2969 98.7656 20.4766C97.6797 21.6484 96.2227 22.2344 94.3945 22.2344C92.5664 22.2344 91.1055 21.6484 90.0117 20.4766C88.9258 19.3047 88.3828 17.7109 88.3828 15.6953V15.543ZM91.7695 15.7891C91.7695 16.9922 91.9961 17.9141 92.4492 18.5547C92.9023 19.1875 93.5508 19.5039 94.3945 19.5039C95.2148 19.5039 95.8555 19.1914 96.3164 18.5664C96.7773 17.9336 97.0078 16.9258 97.0078 15.543C97.0078 14.3633 96.7773 13.4492 96.3164 12.8008C95.8555 12.1523 95.207 11.8281 94.3711 11.8281C93.543 11.8281 92.9023 12.1523 92.4492 12.8008C91.9961 13.4414 91.7695 14.4375 91.7695 15.7891Z" fill="#0A143A"/>
</svg>
